<?xml version="1.0" encoding="UTF-8"?>
<!DOCTYPE svg PUBLIC "-//W3C//DTD SVG 1.1//EN" "http://www.w3.org/Graphics/SVG/1.1/DTD/svg11.dtd">
<svg xmlns="http://www.w3.org/2000/svg" version="1.1" width="171px" height="172px" style="shape-rendering:geometricPrecision; text-rendering:geometricPrecision; image-rendering:optimizeQuality; fill-rule:evenodd; clip-rule:evenodd" xmlns:xlink="http://www.w3.org/1999/xlink">
<g><path style="opacity:0.962" fill="#d5711a" d="M 83.5,-0.5 C 84.5,-0.5 85.5,-0.5 86.5,-0.5C 108.353,12.6823 130.186,26.0157 152,39.5C 152.667,75.5 152.667,111.5 152,147.5C 150.451,150.003 148.784,150.003 147,147.5C 146.667,112.167 146.333,76.8333 146,41.5C 125.667,29.5 105.333,17.5 85,5.5C 64.7507,17.3741 44.5841,29.3741 24.5,41.5C 23.6669,63.4924 23.1669,85.4924 23,107.5C 21.3333,110.167 19.6667,110.167 18,107.5C 17.3333,84.8333 17.3333,62.1667 18,39.5C 39.8137,26.0157 61.647,12.6823 83.5,-0.5 Z"/></g>
<g><path style="opacity:0.934" fill="#d5711a" d="M 76.5,14.5 C 78.7224,14.178 80.5557,14.8446 82,16.5C 82.7835,19.7603 82.6168,22.9269 81.5,26C 78.4718,27.1397 76.3051,26.3064 75,23.5C 74.2069,20.2587 74.7069,17.2587 76.5,14.5 Z"/></g>
<g><path style="opacity:0.922" fill="#d5711a" d="M 86.5,14.5 C 90.5308,14.0335 92.5308,15.8668 92.5,20C 92.3915,25.4495 89.8915,27.2829 85,25.5C 84.013,21.5252 84.513,17.8585 86.5,14.5 Z"/></g>
<g><path style="opacity:0.956" fill="#d5711a" d="M 68.5,23.5 C 73.7809,24.0156 76.2809,27.0156 76,32.5C 81,25.8333 86,25.8333 91,32.5C 90.8397,28.1334 92.673,25.1334 96.5,23.5C 97.4419,23.6082 98.2753,23.9415 99,24.5C 100.458,29.2462 98.958,32.5795 94.5,34.5C 93.914,34.2907 93.414,33.9574 93,33.5C 92.8122,35.476 92.9788,37.476 93.5,39.5C 93.6102,41.374 92.9436,42.874 91.5,44C 86.1667,43.3333 80.8333,43.3333 75.5,44C 73.297,41.24 72.9637,38.24 74.5,35C 68.1434,33.4537 66.1434,29.6204 68.5,23.5 Z"/></g>
<g><path style="opacity:0.963" fill="#0080ab" d="M -0.5,137.5 C -0.5,134.833 -0.5,132.167 -0.5,129.5C 4.83427,124.249 11.1676,122.582 18.5,124.5C 18.5,125.5 18.5,126.5 18.5,127.5C 3.04651,130.051 2.71318,133.718 17.5,138.5C 20.0072,127.487 24.1738,117.154 30,107.5C 37.2842,97.2802 45.2842,87.6136 54,78.5C 55.5929,70.6126 57.9263,62.9459 61,55.5C 67.0282,49.5608 73.8615,48.3941 81.5,52C 84.8433,56.6946 89.51,59.028 95.5,59C 96.1667,59.6667 96.8333,60.3333 97.5,61C 96.2771,64.5698 94.6104,67.9031 92.5,71C 88.605,72.0086 84.7717,73.1752 81,74.5C 77.8493,81.5289 77.8493,88.5289 81,95.5C 81.6667,99.5 81.6667,103.5 81,107.5C 78.6906,111.952 76.5239,116.452 74.5,121C 76.5492,128.363 77.7158,135.863 78,143.5C 78.956,144.579 79.7894,145.745 80.5,147C 84.0141,147.831 87.1808,149.331 90,151.5C 91.5053,153.298 91.6719,155.132 90.5,157C 84.4016,158.347 78.9016,157.18 74,153.5C 69.757,145.112 66.0903,136.446 63,127.5C 62.6667,129.5 62.3333,131.5 62,133.5C 59.5,136 57,138.5 54.5,141C 61.5024,145.97 61.169,150.304 53.5,154C 31.7617,159.841 13.7617,154.341 -0.5,137.5 Z"/></g>
<g><path style="opacity:0.973" fill="#d5721c" d="M 170.5,153.5 C 170.5,154.5 170.5,155.5 170.5,156.5C 158.768,157.386 147.101,156.386 135.5,153.5C 124.791,156.856 114.124,157.189 103.5,154.5C 101.056,158.021 98.2224,158.355 95,155.5C 94.3333,154.833 94.3333,154.167 95,153.5C 96.3333,152.833 97.3333,151.833 98,150.5C 98.9945,146.367 99.8278,142.2 100.5,138C 91.3778,126.134 91.2111,113.967 100,101.5C 100.333,99.1667 100.667,96.8333 101,94.5C 101.368,93.09 102.201,92.09 103.5,91.5C 106.442,92.8187 109.442,93.9854 112.5,95C 114.184,98.7274 116.851,99.5608 120.5,97.5C 119.379,101.474 117.546,105.14 115,108.5C 114.202,110.259 114.369,111.926 115.5,113.5C 124.243,115.115 130.743,119.781 135,127.5C 137.252,134.095 139.252,140.762 141,147.5C 142.319,149.487 144.152,150.654 146.5,151C 154.497,152.048 162.497,152.881 170.5,153.5 Z M 106.5,142.5 C 107.496,142.414 108.329,142.748 109,143.5C 110.502,146.018 112.002,148.518 113.5,151C 110.439,152.116 107.272,152.949 104,153.5C 104.964,149.967 105.798,146.301 106.5,142.5 Z"/></g>
<g><path style="opacity:1" fill="#e8ad7b" d="M 133.5,135.5 C 132.038,134.542 130.705,133.376 129.5,132C 131.841,131.832 133.174,132.999 133.5,135.5 Z"/></g>
<g><path style="opacity:1" fill="#eab588" d="M 133.5,135.5 C 134.117,135.611 134.617,135.944 135,136.5C 135.167,137.833 135.333,139.167 135.5,140.5C 135.639,142.883 134.972,144.883 133.5,146.5C 134.728,142.816 134.728,139.15 133.5,135.5 Z"/></g>
<g><path style="opacity:1" fill="#e29c5f" d="M 133.5,146.5 C 133.423,147.75 132.756,148.583 131.5,149C 128.5,149.667 125.5,149.667 122.5,149C 126.39,148.894 130.057,148.061 133.5,146.5 Z"/></g>
</svg>
